<?xml version="1.0" encoding="utf-8"?><svg xmlns="http://www.w3.org/2000/svg" xmlns:xlink="http://www.w3.org/1999/xlink" width="1280" height="2000" preserveAspectRatio="xMidYMid" viewBox="0 0 1280 2000" style="z-index:1;margin-right:-2px;display:block;background-repeat-y:initial;background-repeat-x:initial;background-color:rgb(241, 242, 243);animation-play-state:paused" ><g transform="" style="animation-play-state:paused" ><linearGradient id="lg-0.43020222678286313" x1="0" x2="1" y1="0" y2="0" style="animation-play-state:paused" ><stop stop-color="#1b2127" offset="0" style="animation-play-state:paused" ></stop>

  
<stop stop-color="#083a47" offset="1" style="animation-play-state:paused" ></stop></linearGradient>
<path fill="url(#lg-0.43020222678286313)" opacity="0.4" d="M 0 0 L 0 1943.27 Q 128 1799.34 256 1763.39 T 512 1443.94 T 768 1196.66 T 1024 908.452 T 1280 614.359 L 1280 0 Z" style="opacity:0.4;animation-play-state:paused" ></path>
<path fill="url(#lg-0.43020222678286313)" opacity="0.4" d="M 0 0 L 0 1852.46 Q 128 1659.99 256 1634.92 T 512 1425.35 T 768 1237.33 T 1024 1153.09 T 1280 853.538 L 1280 0 Z" style="opacity:0.4;animation-play-state:paused" ></path>
<path fill="url(#lg-0.43020222678286313)" opacity="0.4" d="M 0 0 L 0 1826.96 Q 128 1512.99 256 1491.28 T 512 1378.19 T 768 1308.61 T 1024 1137.48 T 1280 875.126 L 1280 0 Z" style="opacity:0.4;animation-play-state:paused" ></path>
<path fill="url(#lg-0.43020222678286313)" opacity="0.4" d="M 0 0 L 0 1730.36 Q 128 1652.7 256 1610.52 T 512 1540.63 T 768 1457.74 T 1024 1246.07 T 1280 1072.86 L 1280 0 Z" style="opacity:0.4;animation-play-state:paused" ></path>
<path fill="url(#lg-0.43020222678286313)" opacity="0.4" d="M 0 0 L 0 1757.91 Q 128 1601.15 256 1573.93 T 512 1563.03 T 768 1148.16 T 1024 1067.44 T 1280 989.495 L 1280 0 Z" style="opacity:0.4;animation-play-state:paused" ></path></g></svg>